<?xml version="1.0" encoding="UTF-8" standalone="no"?>
<!DOCTYPE svg PUBLIC "-//W3C//DTD SVG 1.1//EN" "http://www.w3.org/Graphics/SVG/1.1/DTD/svg11.dtd">
<svg width="100%" height="100%" viewBox="0 0 70 105" version="1.1" xmlns="http://www.w3.org/2000/svg" xmlns:xlink="http://www.w3.org/1999/xlink" xml:space="preserve" xmlns:serif="http://www.serif.com/" style="fill-rule:evenodd;clip-rule:evenodd;stroke-linejoin:round;stroke-miterlimit:2;">
    <g id="Grupo_185" transform="matrix(1,0,0,1,16740.3,14860.4)">
        <g id="Grupo_114" transform="matrix(1,0,0,1,-16739.9,-14859.8)">
            <g id="Trazado_31" transform="matrix(1,0,0,1,-85.333,0)">
                <path d="M119.945,0C100.957,0.001 85.332,15.627 85.332,34.615C85.332,40.356 86.76,46.008 89.488,51.06L118.051,102.72C118.432,103.407 119.158,103.835 119.944,103.835C120.73,103.835 121.456,103.407 121.837,102.72L150.411,51.043C153.131,45.996 154.556,40.351 154.556,34.618C154.556,15.63 138.933,0.004 119.945,0ZM119.945,51.917C119.945,51.917 119.944,51.917 119.944,51.917C110.45,51.917 102.638,44.105 102.638,34.611C102.638,25.117 110.45,17.305 119.944,17.305C129.438,17.305 137.25,25.117 137.25,34.611C137.25,34.611 137.25,34.612 137.25,34.612C137.239,44.101 129.434,51.906 119.945,51.917Z" style="fill:rgb(250,214,32);fill-rule:nonzero;"/>
            </g>
            <g id="Elipse_13" transform="matrix(1,0,0,1,12.889,12.835)">
                <circle cx="22" cy="22" r="22" style="fill:rgb(250,214,32);"/>
            </g>
        </g>
        <g id="_54_v10_Flood" transform="matrix(1,0,0,1,-16728.9,-14848.3)">
            <path d="M7.56,32.551C8.622,31.411 10.096,30.741 11.653,30.69C13.653,30.69 14.724,32.551 17.236,32.551C20.307,32.551 21.098,30.735 23.666,30.735C26.234,30.735 27.017,32.551 29.666,32.551C32.178,32.551 33.066,30.69 35.666,30.69C37.182,30.8 38.605,31.463 39.666,32.551L39.666,40.26L7.56,40.26L7.56,32.551ZM11.66,28.318C11.475,28.318 11.282,28.363 11.1,28.363L11.1,14.452L23.613,10L36.129,14.452L36.129,28.364L35.664,28.319C33.058,28.319 32.173,30.21 29.664,30.21C28.934,30.202 28.216,30.027 27.564,29.699L27.564,22.546L19.656,22.546L19.656,29.714C18.895,30.055 18.069,30.23 17.235,30.225C14.728,30.225 13.7,28.319 11.656,28.319L11.66,28.318Z" style="fill:rgb(245,245,245);fill-rule:nonzero;"/>
        </g>
    </g>
</svg>
