<?xml version="1.0" encoding="utf-8"?>
<!-- Generator: Adobe Illustrator 25.0.0, SVG Export Plug-In . SVG Version: 6.00 Build 0)  -->
<svg version="1.1" id="Layer_1" xmlns="http://www.w3.org/2000/svg" xmlns:xlink="http://www.w3.org/1999/xlink" x="0px" y="0px"
	 viewBox="0 0 30 30" style="enable-background:new 0 0 30 30;" xml:space="preserve">
<style type="text/css">
	.st0{fill:#FFFFFF;stroke:#FFFFFF;stroke-width:0.25;}
	.st1{fill:none;stroke:#FFFFFF;stroke-miterlimit:10;}
</style>
<path id="close" class="st0" d="M15.7,14.8l3.9-3.9c0.2-0.3,0.2-0.7,0-0.9c-0.3-0.2-0.6-0.2-0.9,0l-3.9,3.9L10.9,10
	c-0.3-0.2-0.7-0.2-0.9,0c-0.2,0.3-0.2,0.6,0,0.9l3.9,3.9L10,18.7c-0.3,0.3-0.3,0.7,0,0.9c0.3,0.3,0.7,0.3,0.9,0l3.9-3.9l3.9,3.9
	c0.3,0.3,0.7,0.3,0.9,0s0.3-0.7,0-0.9l0,0L15.7,14.8z"/>
<rect x="2.2" y="2.2" class="st1" width="25.6" height="25.6"/>
</svg>
