<?xml version="1.0" encoding="UTF-8" standalone="no"?>
<!DOCTYPE svg PUBLIC "-//W3C//DTD SVG 1.1//EN" "http://www.w3.org/Graphics/SVG/1.1/DTD/svg11.dtd">
<svg width="100%" height="100%" viewBox="0 0 105 105" version="1.1" xmlns="http://www.w3.org/2000/svg" xmlns:xlink="http://www.w3.org/1999/xlink" xml:space="preserve" xmlns:serif="http://www.serif.com/" style="fill-rule:evenodd;clip-rule:evenodd;stroke-linejoin:round;stroke-miterlimit:2;">
    <g id="click" transform="matrix(0.866025,-0.5,0.5,0.866025,-8.68172,25.9898)">
        <g id="Trazado_11" transform="matrix(1,0,0,1,0,7.498)">
            <path d="M67.587,32.288L67.445,32.288C65.51,32.277 63.639,32.988 62.2,34.282C61.092,31.027 58.045,28.803 54.607,28.74C52.482,28.755 50.451,29.628 48.979,31.161C47.659,28.384 44.861,26.594 41.786,26.561L41.635,26.561C39.963,26.535 38.331,27.078 37.007,28.1L37.007,8.563C37.105,3.985 33.436,0.129 28.859,0C24.288,0.132 20.628,3.986 20.732,8.558L20.695,47.327L18.5,44.662C16.577,42.268 13.742,40.779 10.68,40.555C7.68,40.349 4.726,41.395 2.523,43.442L0.614,45.023C0.002,45.532 -0.175,46.406 0.191,47.113L18.753,82.79C21.943,89.181 28.457,93.275 35.6,93.378L56.522,93.378L56.522,93.36C67.128,93.36 75.722,84.16 75.737,72.86C75.737,67.804 75.722,64.036 75.725,60.982C75.736,52.811 75.725,49.795 75.707,40.793C75.804,36.236 72.144,32.402 67.587,32.288ZM72.307,60.967C72.307,64.022 72.299,67.805 72.294,72.861C72.285,82.293 65.165,89.983 56.423,89.983L35.6,89.983C29.72,89.879 24.369,86.492 21.759,81.222L3.835,46.77L4.72,46.032C4.742,46.014 4.764,45.992 4.785,45.973C6.306,44.541 8.356,43.804 10.441,43.941C12.572,44.104 14.541,45.147 15.873,46.818L21.067,53.138C21.39,53.527 21.87,53.752 22.375,53.752C23.304,53.752 24.069,52.991 24.075,52.063L24.106,8.563C24.01,5.847 26.146,3.525 28.86,3.393C31.574,3.526 33.709,5.847 33.613,8.563L33.613,46.4C33.666,47.293 34.415,47.999 35.31,47.999C36.205,47.999 36.954,47.293 37.007,46.4L37.007,34.851C37.006,34.803 37.005,34.755 37.005,34.707C37.005,32.144 39.076,30.018 41.638,29.951L41.789,29.951C44.496,30.054 46.643,32.359 46.552,35.067L46.552,45.333C46.605,46.226 47.354,46.932 48.249,46.932C49.144,46.932 49.893,46.226 49.946,45.333L49.946,37.282C49.93,37.123 49.921,36.963 49.921,36.803C49.921,34.23 52.039,32.112 54.612,32.112C57.186,32.112 59.304,34.23 59.304,36.803C59.304,36.963 59.295,37.123 59.279,37.282L59.279,44.882C59.277,44.916 59.276,44.949 59.276,44.983C59.276,45.916 60.043,46.683 60.976,46.683C61.909,46.683 62.676,45.916 62.676,44.983C62.676,44.949 62.675,44.916 62.673,44.882L62.673,40.764C62.588,38.061 64.743,35.767 67.446,35.682L67.588,35.682C70.281,35.795 72.405,38.1 72.3,40.793C72.322,49.789 72.317,52.8 72.307,60.967Z" style="fill:rgb(240,80,29);fill-rule:nonzero;"/>
        </g>
        <g id="Trazado_12" transform="matrix(1,0,0,1,13.644,0)">
            <path d="M1.7,16.794C2.633,16.794 3.4,16.027 3.4,15.094C3.4,8.643 8.708,3.335 15.159,3.335C21.61,3.335 26.918,8.643 26.918,15.094C26.971,15.987 27.72,16.693 28.615,16.693C29.51,16.693 30.259,15.987 30.312,15.094C30.31,6.781 23.469,-0.059 15.156,-0.059C6.842,-0.059 0,6.783 0,15.097C0,15.098 0,15.099 0,15.1C0.003,16.03 0.77,16.794 1.7,16.794Z" style="fill:rgb(240,80,29);fill-rule:nonzero;"/>
        </g>
    </g>
</svg>
