<?xml version="1.0" encoding="UTF-8" standalone="no"?>
<!DOCTYPE svg PUBLIC "-//W3C//DTD SVG 1.1//EN" "http://www.w3.org/Graphics/SVG/1.1/DTD/svg11.dtd">
<svg width="100%" height="100%" viewBox="0 0 70 105" version="1.1" xmlns="http://www.w3.org/2000/svg" xmlns:xlink="http://www.w3.org/1999/xlink" xml:space="preserve" xmlns:serif="http://www.serif.com/" style="fill-rule:evenodd;clip-rule:evenodd;stroke-linejoin:round;stroke-miterlimit:2;">
    <g id="Grupo_186" transform="matrix(1,0,0,1,16657,14860.4)">
        <g id="Grupo_112" transform="matrix(1,0,0,1,-16656.7,-14859.8)">
            <g id="Trazado_31" transform="matrix(1,0,0,1,-85.333,0)">
                <path d="M119.945,0C100.957,0.002 85.333,15.628 85.333,34.616C85.333,40.357 86.761,46.008 89.488,51.06L118.051,102.72C118.432,103.407 119.158,103.835 119.944,103.835C120.73,103.835 121.456,103.407 121.837,102.72L150.411,51.043C153.131,45.996 154.556,40.351 154.556,34.618C154.556,15.63 138.933,0.004 119.945,0ZM119.945,51.917C119.945,51.917 119.944,51.917 119.944,51.917C110.45,51.917 102.638,44.105 102.638,34.611C102.638,25.117 110.45,17.305 119.944,17.305C129.438,17.305 137.25,25.117 137.25,34.611C137.25,34.611 137.25,34.612 137.25,34.612C137.239,44.101 129.434,51.906 119.945,51.917Z" style="fill:rgb(0,95,128);fill-rule:nonzero;"/>
            </g>
            <g id="Elipse_13" transform="matrix(1,0,0,1,12.652,12.836)">
                <circle cx="22" cy="22" r="22" style="fill:rgb(0,95,128);"/>
            </g>
        </g>
        <g id="_50_v10_Earthquake" transform="matrix(1,0,0,1,-16647.2,-14853.3)">
            <path d="M5.47,31.968L10.527,31.968C7.773,34.916 6.005,38.65 5.47,42.648L5.47,31.968ZM13.291,31.968L16.638,31.968L15.077,16.268L20.959,13.785L20.959,19.72L26.244,21.825L24.463,31.475C23.425,31.524 22.395,31.687 21.393,31.962C15.371,33.6 11.156,39.102 11.141,45.342L7.251,45.342C7.231,40.221 9.438,35.337 13.295,31.968L13.291,31.968ZM25,33.424C31.54,33.426 36.921,38.806 36.923,45.346L32.976,45.346C32.978,45.279 32.978,45.213 32.978,45.146C32.978,40.749 29.361,37.132 24.965,37.132C20.568,37.132 16.951,40.749 16.951,45.146C16.951,45.213 16.951,45.279 16.953,45.346L13.08,45.346C13.082,38.807 18.461,33.427 25,33.424ZM25,39.249C28.33,39.268 31.056,42.019 31.044,45.349L27.16,45.349C27.16,44.165 26.186,43.191 25.002,43.191C23.818,43.191 22.844,44.165 22.844,45.349C22.844,45.349 18.9,45.349 18.9,45.349C18.922,42.011 21.662,39.271 25,39.249ZM28.614,31.964C27.853,31.761 27.077,31.614 26.294,31.525L28.294,20.691L22.811,18.533L22.811,12.967L24.754,12.16L33.6,14.428L35.27,31.972L36.726,31.972C40.584,35.341 42.792,40.228 42.77,45.35L38.87,45.35C38.856,39.108 34.639,33.605 28.616,31.968L28.614,31.964ZM39.457,31.964L44.532,31.964L44.532,42.648C43.973,38.657 42.209,34.93 39.475,31.968L39.457,31.964Z" style="fill:rgb(245,245,245);fill-rule:nonzero;"/>
        </g>
    </g>
</svg>
