<?xml version="1.0" encoding="UTF-8" standalone="no"?>
<!DOCTYPE svg PUBLIC "-//W3C//DTD SVG 1.1//EN" "http://www.w3.org/Graphics/SVG/1.1/DTD/svg11.dtd">
<svg width="100%" height="100%" viewBox="0 0 70 105" version="1.1" xmlns="http://www.w3.org/2000/svg" xmlns:xlink="http://www.w3.org/1999/xlink" xml:space="preserve" xmlns:serif="http://www.serif.com/" style="fill-rule:evenodd;clip-rule:evenodd;stroke-linejoin:round;stroke-miterlimit:2;">
    <g id="Grupo_123" transform="matrix(1,0,0,1,-1730.84,-1900.76)">
        <g id="Grupo_113" transform="matrix(1,0,0,1,1731.35,1901.52)">
            <g id="Trazado_31" transform="matrix(1,0,0,1,-85.333,0)">
                <path d="M119.826,0C100.903,0.005 85.335,15.577 85.335,34.5C85.335,40.22 86.757,45.851 89.474,50.885L117.939,102.367C118.318,103.052 119.042,103.479 119.826,103.479C120.609,103.479 121.333,103.052 121.712,102.367L150.188,50.867C152.898,45.838 154.317,40.213 154.317,34.5C154.317,15.577 138.749,0.005 119.826,0ZM119.826,51.739C110.365,51.739 102.58,43.954 102.58,34.493C102.58,25.032 110.365,17.247 119.826,17.247C129.287,17.247 137.072,25.032 137.072,34.493C137.061,43.95 129.283,51.728 119.826,51.739Z" style="fill:rgb(227,130,0);fill-rule:nonzero;"/>
            </g>
            <g id="Elipse_13" transform="matrix(1,0,0,1,12.652,12.479)">
                <circle cx="22" cy="22" r="22" style="fill:rgb(227,130,0);"/>
            </g>
        </g>
        <g id="_49_v10_Tsunami" transform="matrix(1,0,0,1,1740.88,1907.07)">
            <path d="M5.6,31.833C5.6,24.166 10.853,20.36 16.537,20.36C22.221,20.36 25.76,24 25.76,27.814C25.76,31.514 23.454,33.481 21.148,33.481C20.408,33.45 19.688,33.231 19.056,32.845L19.056,32.47C19.346,32.19 19.504,31.801 19.492,31.398C19.454,30.562 18.756,29.896 17.92,29.896C17.89,29.896 17.861,29.896 17.831,29.898C16.759,29.898 15.739,30.648 15.739,32.845C15.739,35.526 18.045,36.921 20.939,36.921C25.655,36.921 28.179,31.882 34.888,31.882C38.269,31.955 41.551,33.041 44.307,35L44.307,46.2L5.6,46.2L5.6,31.833ZM34.8,28.886C33.154,28.893 31.523,29.2 29.988,29.793L29.988,24.274L37.119,21.484L44.303,24.274L44.303,31.78C41.508,29.873 38.198,28.861 34.814,28.88L34.8,28.886Z" style="fill:rgb(245,245,245);fill-rule:nonzero;"/>
        </g>
    </g>
</svg>
