<?xml version="1.0" encoding="UTF-8" standalone="no"?>
<!DOCTYPE svg PUBLIC "-//W3C//DTD SVG 1.1//EN" "http://www.w3.org/Graphics/SVG/1.1/DTD/svg11.dtd">
<svg width="100%" height="100%" viewBox="0 0 70 105" version="1.1" xmlns="http://www.w3.org/2000/svg" xmlns:xlink="http://www.w3.org/1999/xlink" xml:space="preserve" xmlns:serif="http://www.serif.com/" style="fill-rule:evenodd;clip-rule:evenodd;stroke-linejoin:round;stroke-miterlimit:2;">
    <g>
        <g id="Grupo_115" transform="matrix(1,0,0,1,0.389099,0.582273)">
            <g id="Trazado_31" transform="matrix(1,0,0,1,-85.333,0)">
                <path d="M119.945,0C100.957,0.001 85.332,15.627 85.332,34.615C85.332,40.356 86.76,46.008 89.488,51.06L118.051,102.72C118.432,103.407 119.158,103.835 119.944,103.835C120.73,103.835 121.456,103.407 121.837,102.72L150.411,51.043C153.131,45.996 154.556,40.351 154.556,34.618C154.556,15.63 138.933,0.004 119.945,0ZM119.945,51.917C119.945,51.917 119.944,51.917 119.944,51.917C110.45,51.917 102.638,44.105 102.638,34.611C102.638,25.117 110.45,17.305 119.944,17.305C129.438,17.305 137.25,25.117 137.25,34.611C137.25,34.611 137.25,34.612 137.25,34.612C137.239,44.101 129.434,51.906 119.945,51.917Z" style="fill:rgb(240,80,29);fill-rule:nonzero;"/>
            </g>
            <g id="Elipse_13" transform="matrix(1,0,0,1,12.914,12.835)">
                <circle cx="22" cy="22" r="22" style="fill:rgb(240,80,29);"/>
            </g>
        </g>
        <g id="_47_v10_Volcano_eruption" transform="matrix(1,0,0,1,9.5081,6.89927)">
            <path d="M6.561,16.382C6.551,16.382 6.54,16.382 6.53,16.382C5.948,16.382 5.47,15.904 5.47,15.322C5.47,15.312 5.47,15.301 5.47,15.291C5.475,14.694 5.964,14.205 6.561,14.2C7.143,14.241 7.611,14.709 7.652,15.291C7.631,15.881 7.151,16.361 6.561,16.382ZM29.319,29.309L44.1,44.867L44.1,45.524L5.909,45.524L5.909,44.867L19.931,29.425C18.84,26.532 17.15,24.3 14.692,24.3C11.307,24.3 9.018,29.7 8.692,31.123C8.653,31.457 8.371,31.714 8.035,31.723C7.653,31.723 7.489,31.231 7.653,30.578C8.145,28.426 10.585,22.878 14.693,22.878C17.914,22.878 19.879,25.606 21.077,29.155L21.569,29.155C19.985,21.568 16.44,17.7 10.221,16.733C9.675,16.622 9.13,16.289 9.13,15.642C9.151,15.06 9.639,14.595 10.221,14.6C17.86,15.554 22.121,19.928 23.698,29.04C24.298,23.983 25.881,19.653 28.773,18.398C31.319,14.267 35.628,11.528 40.449,10.976C41.028,10.966 41.516,11.426 41.54,12.005C41.485,12.582 41.025,13.043 40.449,13.1C36.971,13.594 33.809,15.393 31.608,18.131C32.815,18.4 33.894,19.073 34.665,20.039C35.166,19.928 35.678,19.873 36.191,19.875C41.155,19.875 43.56,24.897 44.048,27.239C44.101,27.683 44.101,28.929 43.161,28.929C42.68,28.862 42.299,28.481 42.232,28C41.904,26.035 40.32,21.834 36.177,21.834L35.96,21.834C37.446,24.747 38.458,27.878 38.96,31.11C39.013,31.385 38.849,31.926 38.468,31.926C37.976,31.926 37.868,31.651 37.811,31.326C37.101,27.941 36.174,24.397 34.706,22.01C31.825,22.766 30.352,25.716 29.319,29.309ZM7.546,32.916C8.137,32.982 8.6,33.467 8.637,34.061C8.616,34.651 8.136,35.131 7.546,35.152C6.92,35.176 6.382,34.687 6.346,34.061C6.395,33.432 6.916,32.935 7.546,32.916ZM22.119,18.623C22.117,18.599 22.117,18.575 22.117,18.551C22.117,17.921 22.635,17.402 23.266,17.402C23.896,17.402 24.415,17.921 24.415,18.551C24.415,19.181 23.896,19.7 23.266,19.7C23.265,19.7 23.265,19.7 23.265,19.7C22.661,19.7 22.155,19.224 22.118,18.622L22.119,18.623ZM24.736,29.155L25.064,29.155C25.449,26.244 26.276,23.409 27.517,20.748C25.987,22.496 25.17,25.606 24.731,29.148L24.736,29.155ZM30.791,19.165C28.831,22.194 27.513,25.593 26.918,29.151L27.362,29.151C28.693,25.114 30.583,21.676 33.528,20.421C32.808,19.671 31.829,19.221 30.791,19.164L30.791,19.165ZM38.776,33.135C39.357,33.178 39.822,33.645 39.863,34.226C39.842,34.816 39.362,35.296 38.772,35.317C38.152,35.323 37.625,34.844 37.572,34.226C37.644,33.623 38.149,33.157 38.756,33.135L38.776,33.135ZM44.831,31.281C44.81,31.878 44.319,32.361 43.722,32.372C43.096,32.396 42.558,31.907 42.522,31.281C42.571,30.652 43.092,30.155 43.722,30.136C44.312,30.201 44.774,30.688 44.809,31.281L44.831,31.281ZM42.738,11.565C42.742,10.939 43.257,10.424 43.883,10.42C44.488,10.425 44.984,10.924 44.984,11.529C44.984,11.541 44.983,11.553 44.983,11.565C44.962,12.155 44.482,12.635 43.892,12.656C43.289,12.64 42.79,12.166 42.743,11.565L42.738,11.565Z" style="fill:rgb(245,245,245);fill-rule:nonzero;"/>
        </g>
    </g>
</svg>
