<?xml version="1.0" encoding="utf-8"?>
<!-- Generator: Adobe Illustrator 25.0.0, SVG Export Plug-In . SVG Version: 6.00 Build 0)  -->
<svg version="1.1" id="Layer_1" xmlns="http://www.w3.org/2000/svg" xmlns:xlink="http://www.w3.org/1999/xlink" x="0px" y="0px"
	 viewBox="0 0 30 30" style="enable-background:new 0 0 30 30;" xml:space="preserve">
<style type="text/css">
	.st0{fill-rule:evenodd;clip-rule:evenodd;}
</style>
<g>
	<path class="st0" d="M21.3,15c0,3.5-2.8,6.3-6.3,6.3c-3.5,0-6.3-2.8-6.3-6.3s2.8-6.3,6.3-6.3C18.5,8.7,21.3,11.5,21.3,15z M19.5,15
		c0,2.5-2,4.5-4.5,4.5c-2.5,0-4.5-2-4.5-4.5s2-4.5,4.5-4.5C17.5,10.5,19.5,12.5,19.5,15z"/>
	<path class="st0" d="M15,5.4c-8.3,0-12.7,5.3-14.3,7.9c-0.7,1.1-0.7,2.4,0,3.5c1.6,2.5,6,7.9,14.3,7.9s12.7-5.3,14.3-7.9
		c0.7-1.1,0.7-2.4,0-3.5C27.7,10.7,23.3,5.4,15,5.4z M2.4,14.3c1.4-2.3,5.3-7,12.6-7c7.3,0,11.2,4.7,12.6,7c0.3,0.4,0.3,1,0,1.4
		c-1.4,2.3-5.3,7-12.6,7c-7.3,0-11.2-4.7-12.6-7C2.1,15.3,2.1,14.7,2.4,14.3z"/>
</g>
</svg>
