{
    "asset" : {
        "generator" : "Khronos glTF Blender I/O v0.9.35",
        "version" : "2.0"
    },
    "scene" : 0,
    "scenes" : [
        {
            "name" : "Scene",
            "nodes" : [
                0
            ]
        }
    ],
    "nodes" : [
        {
            "mesh" : 0,
            "name" : "TerrainNode",
            "rotation" : [
                0.7071068286895752,
                0,
                0,
                0.7071067094802856
            ],
            "scale" : [
                0.0026723030023276806,
                0.0026723032351583242,
                0.0026723032351583242
            ]
        }
    ],
    "materials" : [
        {
            "doubleSided" : true,
            "name" : "TerrainNodeMaterial.006",
            "pbrMetallicRoughness" : {
                "baseColorFactor" : [
                    1,
                    1,
                    1,
                    0.800000011920929
                ],
                "baseColorTexture" : {
                    "index" : 0,
                    "texCoord" : 0
                },
                "metallicFactor" : 0.15000000596046448,
                "roughnessFactor" : 0.8500000238418579
            }
        }
    ],
    "meshes" : [
        {
            "name" : "TerrainNodeMesh.006",
            "primitives" : [
                {
                    "attributes" : {
                        "POSITION" : 0,
                        "NORMAL" : 1,
                        "TEXCOORD_0" : 2
                    },
                    "indices" : 3,
                    "material" : 0
                }
            ]
        }
    ],
    "textures" : [
        {
            "source" : 0
        }
    ],
    "images" : [
        {
            "mimeType" : "image/png",
            "name" : "Image_0",
            "uri" : "Image_0.png"
        }
    ],
    "accessors" : [
        {
            "bufferView" : 0,
            "componentType" : 5126,
            "count" : 2952,
            "max" : [
                2365.5390625,
                2372.404541015625,
                0
            ],
            "min" : [
                -2365.5390625,
                -2372.404541015625,
                -603
            ],
            "type" : "VEC3"
        },
        {
            "bufferView" : 1,
            "componentType" : 5126,
            "count" : 2952,
            "type" : "VEC3"
        },
        {
            "bufferView" : 2,
            "componentType" : 5126,
            "count" : 2952,
            "type" : "VEC2"
        },
        {
            "bufferView" : 3,
            "componentType" : 5123,
            "count" : 14688,
            "type" : "SCALAR"
        }
    ],
    "bufferViews" : [
        {
            "buffer" : 0,
            "byteLength" : 35424,
            "byteOffset" : 0
        },
        {
            "buffer" : 0,
            "byteLength" : 35424,
            "byteOffset" : 35424
        },
        {
            "buffer" : 0,
            "byteLength" : 23616,
            "byteOffset" : 70848
        },
        {
            "buffer" : 0,
            "byteLength" : 29376,
            "byteOffset" : 94464
        }
    ],
    "buffers" : [
        {
            "byteLength" : 123840,
            "uri" : "iquique.bin"
        }
    ]
}
