<?xml version="1.0" encoding="UTF-8" standalone="no"?>
<!DOCTYPE svg PUBLIC "-//W3C//DTD SVG 1.1//EN" "http://www.w3.org/Graphics/SVG/1.1/DTD/svg11.dtd">
<svg width="100%" height="100%" viewBox="0 0 47 47" version="1.1" xmlns="http://www.w3.org/2000/svg" xmlns:xlink="http://www.w3.org/1999/xlink" xml:space="preserve" xmlns:serif="http://www.serif.com/" style="fill-rule:evenodd;clip-rule:evenodd;stroke-linejoin:round;stroke-miterlimit:2;">
    <g id="Trazado_26" transform="matrix(1,0,0,1,-187.962,-187.962)">
        <path d="M215.923,211.462C215.923,213.91 213.909,215.924 211.461,215.924C209.013,215.924 206.999,213.91 206.999,211.462C206.999,209.014 209.013,207 211.461,207C211.461,207 211.462,207 211.462,207C213.909,207.001 215.923,209.015 215.923,211.462Z" style="fill:white;fill-rule:nonzero;"/>
    </g>
    <g id="Trazado_27" transform="matrix(1,0,0,1,-122.958,-122.961)">
        <path d="M156.892,138.567C156.442,137.4 155.519,136.477 154.352,136.027C153.556,135.732 152.716,135.576 151.867,135.566C150.455,135.502 150.032,135.488 146.458,135.488C142.884,135.488 142.458,135.502 141.049,135.566C140.2,135.576 139.36,135.732 138.564,136.027C137.397,136.477 136.473,137.4 136.023,138.567C135.728,139.363 135.572,140.204 135.562,141.053C135.498,142.464 135.484,142.888 135.484,146.462C135.484,150.036 135.498,150.462 135.562,151.871C135.572,152.72 135.728,153.56 136.023,154.356C136.473,155.523 137.396,156.446 138.563,156.896C139.359,157.191 140.2,157.347 141.049,157.357C142.46,157.421 142.883,157.435 146.458,157.435C150.033,157.435 150.458,157.421 151.867,157.357C152.716,157.347 153.557,157.191 154.353,156.896C155.52,156.446 156.443,155.523 156.893,154.356C157.188,153.56 157.344,152.72 157.354,151.871C157.418,150.459 157.432,150.036 157.432,146.462C157.432,142.888 157.418,142.462 157.354,141.053C157.344,140.204 157.187,139.363 156.892,138.567ZM146.458,153.334C142.688,153.334 139.585,150.231 139.585,146.461C139.585,142.691 142.688,139.588 146.458,139.588C150.228,139.588 153.331,142.691 153.331,146.461C153.331,146.461 153.331,146.462 153.331,146.462C153.331,150.232 150.228,153.335 146.458,153.335C146.458,153.335 146.458,153.334 146.458,153.334ZM153.603,140.922C152.722,140.922 151.997,140.197 151.997,139.316C151.997,138.435 152.722,137.71 153.603,137.71C154.484,137.71 155.209,138.435 155.209,139.316C155.209,139.316 155.209,139.317 155.209,139.317C155.209,140.198 154.484,140.923 153.603,140.923C153.602,140.923 153.601,140.923 153.6,140.923L153.603,140.922Z" style="fill:white;fill-rule:nonzero;"/>
    </g>
    <g id="Trazado_28" transform="matrix(1,0,0,1,0.19,0.19)">
        <path d="M23.31,0C10.523,0 0,10.523 0,23.31C0,36.097 10.523,46.62 23.31,46.62C36.097,46.62 46.62,36.097 46.62,23.31C46.618,10.523 36.097,0.002 23.31,0ZM36.61,28.828C36.588,29.938 36.378,31.037 35.988,32.077C35.293,33.874 33.87,35.297 32.073,35.992C31.033,36.381 29.934,36.592 28.824,36.614C27.397,36.679 26.941,36.695 23.306,36.695C19.671,36.695 19.215,36.679 17.787,36.614C16.677,36.592 15.578,36.381 14.538,35.992C12.741,35.297 11.318,33.874 10.623,32.077C10.233,31.037 10.023,29.938 10.001,28.828C9.935,27.4 9.92,26.944 9.92,23.309C9.92,19.674 9.935,19.218 10.001,17.791C10.023,16.681 10.233,15.582 10.623,14.542C11.319,12.745 12.741,11.323 14.538,10.627C15.578,10.238 16.677,10.027 17.787,10.005C19.214,9.94 19.67,9.924 23.305,9.924C26.94,9.924 27.396,9.94 28.823,10.005C29.933,10.027 31.032,10.237 32.072,10.626C33.869,11.321 35.292,12.744 35.987,14.541C36.377,15.581 36.587,16.68 36.609,17.79C36.674,19.217 36.689,19.673 36.689,23.308C36.689,26.943 36.68,27.4 36.614,28.828L36.61,28.828Z" style="fill:white;fill-rule:nonzero;"/>
    </g>
</svg>
