<?xml version="1.0" encoding="UTF-8" standalone="no"?>
<!DOCTYPE svg PUBLIC "-//W3C//DTD SVG 1.1//EN" "http://www.w3.org/Graphics/SVG/1.1/DTD/svg11.dtd">
<svg width="100%" height="100%" viewBox="0 0 1000 1000" version="1.1" xmlns="http://www.w3.org/2000/svg" xmlns:xlink="http://www.w3.org/1999/xlink" xml:space="preserve" xmlns:serif="http://www.serif.com/" style="fill-rule:evenodd;clip-rule:evenodd;stroke-miterlimit:10;">
    <g transform="matrix(1,0,0,1,5.98936,-2.43749)">
        <g transform="matrix(1.84854,0,0,1.84854,495.981,977.728)">
            <path d="M0,-514.232C-14.435,-514.232 -29.415,-512.814 -44.524,-510.014C-111.669,-497.972 -168.166,-466.596 -207.918,-419.28C-254.05,-364.2 -269.8,-292.089 -252.267,-216.231C-238.49,-154.957 -198.888,-92.514 -146.328,-49.192C-105.355,-15.63 -63.054,0.001 -13.203,0.001C5.363,0.001 24.909,-2.156 46.553,-6.594C113.172,-21.336 175.667,-66.928 217.99,-131.67C255.261,-190.201 265.971,-248.42 249.816,-304.688C234.64,-361.262 198.415,-415.68 147.81,-457.943C100.906,-495.815 52.55,-514.232 0,-514.232M-13.203,2.872C-63.753,2.872 -106.633,-12.965 -148.15,-46.975C-201.189,-90.69 -241.157,-153.725 -255.065,-215.593C-272.805,-292.341 -256.842,-365.337 -210.117,-421.125C-169.927,-468.963 -112.844,-500.676 -45.04,-512.838C-29.766,-515.669 -14.609,-517.104 0,-517.104C53.232,-517.104 102.178,-498.478 149.632,-460.163C200.705,-417.508 237.261,-362.572 252.582,-305.457C268.968,-248.385 258.144,-189.383 220.403,-130.114C177.664,-64.734 114.519,-18.694 47.15,-3.787C25.294,0.697 5.559,2.872 -13.203,2.872" style="fill:rgb(240,80,29);fill-rule:nonzero;"/>
        </g>
        <g transform="matrix(1.84854,0,0,1.84854,495.981,977.728)">
            <path d="M0,-514.232C-14.435,-514.232 -29.415,-512.814 -44.524,-510.014C-111.669,-497.972 -168.166,-466.596 -207.918,-419.28C-254.05,-364.2 -269.8,-292.089 -252.267,-216.231C-238.49,-154.957 -198.888,-92.514 -146.328,-49.192C-105.355,-15.63 -63.054,0.001 -13.203,0.001C5.363,0.001 24.909,-2.156 46.553,-6.594C113.172,-21.336 175.667,-66.928 217.99,-131.67C255.261,-190.201 265.971,-248.42 249.816,-304.688C234.64,-361.262 198.415,-415.68 147.81,-457.943C100.906,-495.815 52.55,-514.232 0,-514.232ZM-13.203,2.872C-63.753,2.872 -106.633,-12.965 -148.15,-46.975C-201.189,-90.69 -241.157,-153.725 -255.065,-215.593C-272.805,-292.341 -256.842,-365.337 -210.117,-421.125C-169.927,-468.963 -112.844,-500.676 -45.04,-512.838C-29.766,-515.669 -14.609,-517.104 0,-517.104C53.232,-517.104 102.178,-498.478 149.632,-460.163C200.705,-417.508 237.261,-362.572 252.582,-305.457C268.968,-248.385 258.144,-189.383 220.403,-130.114C177.664,-64.734 114.519,-18.694 47.15,-3.787C25.294,0.697 5.559,2.872 -13.203,2.872Z" style="fill:none;fill-rule:nonzero;stroke:rgb(240,80,29);stroke-width:2.16px;"/>
        </g>
        <g transform="matrix(1.84854,0,0,1.84854,492.008,588.152)">
            <path d="M0,-85.893C-13.395,-85.893 -24.781,-82.732 -31.239,-77.222C-38.575,-70.971 -42.288,-60.101 -42.274,-44.914C-42.264,-34.731 -36.251,-27.505 -29.886,-19.857L-28.654,-18.373C-21.299,-9.484 -12.362,-0.001 0.654,-0.001L1.262,-0.007C24.717,-0.586 44.558,-21.223 44.582,-45.069C44.574,-67.868 25.936,-85.415 1.228,-85.884L0,-85.893ZM0.654,2.87C-13.609,2.87 -23.095,-7.15 -30.866,-16.541L-32.093,-18.02C-38.504,-25.725 -45.133,-33.691 -45.146,-44.911C-45.159,-60.979 -41.107,-72.584 -33.102,-79.407C-26.134,-85.354 -14.067,-88.763 0,-88.763C0.429,-88.763 0.852,-88.761 1.276,-88.753C27.596,-88.255 47.444,-69.474 47.451,-45.067C47.427,-19.704 26.304,2.246 1.329,2.863L0.654,2.87Z" style="fill:rgb(240,80,29);fill-rule:nonzero;stroke:rgb(240,80,29);stroke-width:2.16px;"/>
        </g>
        <g transform="matrix(1.84854,0,0,1.84854,492.347,613.949)">
            <path d="M0,-113.848C-0.633,-113.848 -1.271,-113.84 -1.906,-113.822C-10.585,-113.549 -32.088,-111.672 -44.233,-100.146C-53.589,-91.281 -57.787,-76.565 -56.716,-56.408C-55.982,-42.798 -47.493,-33.643 -38.504,-23.951L-36.821,-22.132C-26.367,-10.793 -13.627,1.346 4.095,-0.119C35.14,-2.781 59.962,-31.405 58.296,-62.621C56.673,-91.824 31.612,-113.848 0,-113.848M1.18,2.871C-16.219,2.871 -28.647,-9.03 -38.932,-20.185L-40.609,-21.996C-49.549,-31.638 -58.793,-41.606 -59.582,-56.253C-60.701,-77.292 -56.202,-92.76 -46.209,-102.229C-33.348,-114.433 -11.003,-116.41 -1.993,-116.691C-1.323,-116.71 -0.659,-116.719 0,-116.719C33.159,-116.719 59.454,-93.53 61.162,-62.778C62.911,-30.053 36.885,-0.049 4.333,2.743C3.262,2.83 2.212,2.871 1.18,2.871" style="fill:rgb(240,80,29);fill-rule:nonzero;"/>
        </g>
        <g transform="matrix(1.84854,0,0,1.84854,492.347,613.949)">
            <path d="M0,-113.848C-0.633,-113.848 -1.271,-113.84 -1.906,-113.822C-10.585,-113.549 -32.088,-111.672 -44.233,-100.146C-53.589,-91.281 -57.787,-76.565 -56.716,-56.408C-55.982,-42.798 -47.493,-33.643 -38.504,-23.951L-36.821,-22.132C-26.367,-10.793 -13.627,1.346 4.095,-0.119C35.14,-2.781 59.962,-31.405 58.296,-62.621C56.673,-91.824 31.612,-113.848 0,-113.848ZM1.18,2.871C-16.219,2.871 -28.647,-9.03 -38.932,-20.185L-40.609,-21.996C-49.549,-31.638 -58.793,-41.606 -59.582,-56.253C-60.701,-77.292 -56.202,-92.76 -46.209,-102.229C-33.348,-114.433 -11.003,-116.41 -1.993,-116.691C-1.323,-116.71 -0.659,-116.719 0,-116.719C33.159,-116.719 59.454,-93.53 61.162,-62.778C62.911,-30.053 36.885,-0.049 4.333,2.743C3.262,2.83 2.212,2.871 1.18,2.871Z" style="fill:none;fill-rule:nonzero;stroke:rgb(240,80,29);stroke-width:2.16px;"/>
        </g>
        <g transform="matrix(1.84854,0,0,1.84854,477.494,648.563)">
            <path d="M0,-151.62C-12.487,-151.62 -29.977,-149.773 -42.379,-140.975C-56.382,-131.046 -64.628,-112.458 -66.888,-85.726C-68.42,-67.559 -58.866,-53.852 -48.752,-39.339L-46.91,-36.693C-35.084,-19.632 -20.507,-1.326 2.911,-0.079C4.03,-0.026 5.152,-0.001 6.271,-0.001C45.47,-0.001 81.697,-33.411 85.386,-72.959C88.87,-111.914 58.873,-145.339 15.607,-150.7C10.369,-151.309 5.115,-151.62 0,-151.62M6.271,2.871C5.107,2.871 3.939,2.843 2.767,2.786C-21.955,1.47 -37.056,-17.437 -49.271,-35.057L-51.107,-37.697C-61.067,-51.99 -71.368,-66.768 -69.748,-85.968C-67.414,-113.581 -58.765,-132.876 -44.04,-143.319C-31.021,-152.553 -12.905,-154.491 0,-154.491C5.226,-154.491 10.592,-154.176 15.949,-153.552C60.797,-147.994 91.872,-113.234 88.244,-72.698C84.425,-31.734 46.888,2.871 6.271,2.871" style="fill:rgb(240,80,29);fill-rule:nonzero;"/>
        </g>
        <g transform="matrix(1.84854,0,0,1.84854,477.494,648.563)">
            <path d="M0,-151.62C-12.487,-151.62 -29.977,-149.773 -42.379,-140.975C-56.382,-131.046 -64.628,-112.458 -66.888,-85.726C-68.42,-67.559 -58.866,-53.852 -48.752,-39.339L-46.91,-36.693C-35.084,-19.632 -20.507,-1.326 2.911,-0.079C4.03,-0.026 5.152,-0.001 6.271,-0.001C45.47,-0.001 81.697,-33.411 85.386,-72.959C88.87,-111.914 58.873,-145.339 15.607,-150.7C10.369,-151.309 5.115,-151.62 0,-151.62ZM6.271,2.871C5.107,2.871 3.939,2.843 2.767,2.786C-21.955,1.47 -37.056,-17.437 -49.271,-35.057L-51.107,-37.697C-61.067,-51.99 -71.368,-66.768 -69.748,-85.968C-67.414,-113.581 -58.765,-132.876 -44.04,-143.319C-31.021,-152.553 -12.905,-154.491 0,-154.491C5.226,-154.491 10.592,-154.176 15.949,-153.552C60.797,-147.994 91.872,-113.234 88.244,-72.698C84.425,-31.734 46.888,2.871 6.271,2.871Z" style="fill:none;fill-rule:nonzero;stroke:rgb(240,80,29);stroke-width:2.16px;"/>
        </g>
        <g transform="matrix(1.84854,0,0,1.84854,483.372,678.254)">
            <path d="M0,-183.304C-26.694,-183.304 -49.682,-176.781 -63.069,-165.405C-79.142,-151.766 -87.268,-128.362 -87.218,-95.844C-87.197,-73.653 -74.241,-58.122 -60.522,-41.68L-57.993,-38.641C-42.019,-19.407 -22.502,1.159 5.854,-0.053C29.941,-1.288 52.968,-12.265 70.682,-30.962C87.937,-49.174 97.869,-72.876 97.938,-95.987C97.83,-142.612 57.346,-180.921 5.77,-183.199C3.874,-183.268 1.946,-183.304 0,-183.304M3.472,2.87C-24.879,2.87 -44.261,-17.612 -60.202,-36.808L-62.728,-39.841C-76.169,-55.952 -90.067,-72.613 -90.089,-95.84C-90.139,-129.241 -81.673,-153.383 -64.928,-167.593C-51.029,-179.402 -27.364,-186.174 0,-186.174C1.982,-186.174 3.944,-186.138 5.887,-186.069C59.009,-183.722 100.698,-144.154 100.807,-95.987C100.739,-72.144 90.519,-47.726 72.766,-28.988C54.542,-9.753 30.827,1.542 5.988,2.815C5.135,2.851 4.298,2.87 3.472,2.87" style="fill:rgb(240,80,29);fill-rule:nonzero;"/>
        </g>
        <g transform="matrix(1.84854,0,0,1.84854,483.372,678.254)">
            <path d="M0,-183.304C-26.694,-183.304 -49.682,-176.781 -63.069,-165.405C-79.142,-151.766 -87.268,-128.362 -87.218,-95.844C-87.197,-73.653 -74.241,-58.122 -60.522,-41.68L-57.993,-38.641C-42.019,-19.407 -22.502,1.159 5.854,-0.053C29.941,-1.288 52.968,-12.265 70.682,-30.962C87.937,-49.174 97.869,-72.876 97.938,-95.987C97.83,-142.612 57.346,-180.921 5.77,-183.199C3.874,-183.268 1.946,-183.304 0,-183.304ZM3.472,2.87C-24.879,2.87 -44.261,-17.612 -60.202,-36.808L-62.728,-39.841C-76.169,-55.952 -90.067,-72.613 -90.089,-95.84C-90.139,-129.241 -81.673,-153.383 -64.928,-167.593C-51.029,-179.402 -27.364,-186.174 0,-186.174C1.982,-186.174 3.944,-186.138 5.887,-186.069C59.009,-183.722 100.698,-144.154 100.807,-95.987C100.739,-72.144 90.519,-47.726 72.766,-28.988C54.542,-9.753 30.827,1.542 5.988,2.815C5.135,2.851 4.298,2.87 3.472,2.87Z" style="fill:none;fill-rule:nonzero;stroke:rgb(240,80,29);stroke-width:2.16px;"/>
        </g>
        <g transform="matrix(1.84854,0,0,1.84854,459.247,714.228)">
            <path d="M0,-223.579C-20.9,-223.579 -38.605,-219.384 -51.196,-211.447C-72.798,-197.858 -86.522,-171.137 -91.993,-132.027C-95.751,-105.249 -82.648,-84.256 -68.774,-62.03L-66.304,-58.064C-50.055,-31.916 -29.871,-3.738 4.146,-0.402C7.096,-0.136 10.112,0 13.102,0C40.136,0 67.318,-10.862 89.64,-30.583C111.274,-49.697 126.063,-75.627 130.216,-101.725C138.537,-156.552 97.187,-207.518 34.029,-220.266C22.415,-222.462 10.96,-223.579 0,-223.579M13.102,2.87C10.027,2.87 6.924,2.731 3.876,2.456C-31.453,-1.01 -52.132,-29.817 -68.743,-56.548L-71.21,-60.509C-84.745,-82.192 -98.739,-104.615 -94.837,-132.426C-89.243,-172.411 -75.076,-199.815 -52.727,-213.877C-39.676,-222.103 -21.443,-226.449 0,-226.449C11.139,-226.449 22.773,-225.317 34.58,-223.083C99.283,-210.023 141.61,-157.664 133.054,-101.282C128.796,-74.531 113.666,-47.98 91.541,-28.431C68.694,-8.246 40.837,2.87 13.102,2.87" style="fill:rgb(240,80,29);fill-rule:nonzero;"/>
        </g>
        <g transform="matrix(1.84854,0,0,1.84854,459.247,714.228)">
            <path d="M0,-223.579C-20.9,-223.579 -38.605,-219.384 -51.196,-211.447C-72.798,-197.858 -86.522,-171.137 -91.993,-132.027C-95.751,-105.249 -82.648,-84.256 -68.774,-62.03L-66.304,-58.064C-50.055,-31.916 -29.871,-3.738 4.146,-0.402C7.096,-0.136 10.112,0 13.102,0C40.136,0 67.318,-10.862 89.64,-30.583C111.274,-49.697 126.063,-75.627 130.216,-101.725C138.537,-156.552 97.187,-207.518 34.029,-220.266C22.415,-222.462 10.96,-223.579 0,-223.579ZM13.102,2.87C10.027,2.87 6.924,2.731 3.876,2.456C-31.453,-1.01 -52.132,-29.817 -68.743,-56.548L-71.21,-60.509C-84.745,-82.192 -98.739,-104.615 -94.837,-132.426C-89.243,-172.411 -75.076,-199.815 -52.727,-213.877C-39.676,-222.103 -21.443,-226.449 0,-226.449C11.139,-226.449 22.773,-225.317 34.58,-223.083C99.283,-210.023 141.61,-157.664 133.054,-101.282C128.796,-74.531 113.666,-47.98 91.541,-28.431C68.694,-8.246 40.837,2.87 13.102,2.87Z" style="fill:none;fill-rule:nonzero;stroke:rgb(240,80,29);stroke-width:2.16px;"/>
        </g>
        <g transform="matrix(1.84854,0,0,1.84854,459.433,747.855)">
            <path d="M0,-259.409C-19.802,-259.409 -47.718,-256.351 -68.252,-241.778C-92.523,-224.576 -107.412,-191.688 -111.31,-146.67C-114.04,-115.314 -97.497,-91.752 -79.983,-66.805L-76.762,-62.209C-56.205,-32.84 -30.971,-1.391 8.443,-0.03C9.312,-0.01 10.193,0 11.076,0C77.465,0 141.768,-58.378 148.687,-124.928C154.57,-187.646 102.346,-245.77 29.791,-257.239C19.79,-258.678 9.76,-259.409 0,-259.409M11.076,2.872C10.171,2.872 9.269,2.861 8.36,2.84C-32.391,1.433 -58.159,-30.626 -79.115,-60.563L-82.333,-65.156C-99.372,-89.426 -116.992,-114.52 -114.17,-146.918C-110.197,-192.803 -94.894,-226.416 -69.913,-244.12C-48.762,-259.129 -20.219,-262.281 0,-262.281C9.896,-262.281 20.062,-261.54 30.22,-260.077C104.286,-248.372 157.57,-188.884 151.543,-124.645C144.481,-56.71 78.844,2.872 11.076,2.872" style="fill:rgb(240,80,29);fill-rule:nonzero;"/>
        </g>
        <g transform="matrix(1.84854,0,0,1.84854,459.433,747.855)">
            <path d="M0,-259.409C-19.802,-259.409 -47.718,-256.351 -68.252,-241.778C-92.523,-224.576 -107.412,-191.688 -111.31,-146.67C-114.04,-115.314 -97.497,-91.752 -79.983,-66.805L-76.762,-62.209C-56.205,-32.84 -30.971,-1.391 8.443,-0.03C9.312,-0.01 10.193,0 11.076,0C77.465,0 141.768,-58.378 148.687,-124.928C154.57,-187.646 102.346,-245.77 29.791,-257.239C19.79,-258.678 9.76,-259.409 0,-259.409ZM11.076,2.872C10.171,2.872 9.269,2.861 8.36,2.84C-32.391,1.433 -58.159,-30.626 -79.115,-60.563L-82.333,-65.156C-99.372,-89.426 -116.992,-114.52 -114.17,-146.918C-110.197,-192.803 -94.894,-226.416 -69.913,-244.12C-48.762,-259.129 -20.219,-262.281 0,-262.281C9.896,-262.281 20.062,-261.54 30.22,-260.077C104.286,-248.372 157.57,-188.884 151.543,-124.645C144.481,-56.71 78.844,2.872 11.076,2.872Z" style="fill:none;fill-rule:nonzero;stroke:rgb(240,80,29);stroke-width:2.16px;"/>
        </g>
        <g transform="matrix(1.84854,0,0,1.84854,482.106,789.405)">
            <path d="M0,-304.476C-5.946,-304.476 -11.952,-304.132 -17.85,-303.452C-64.063,-297.92 -104.483,-279.577 -125.966,-254.384C-149.56,-226.747 -157.147,-184.521 -147.907,-132.272C-141.442,-95.577 -114.525,-72.564 -88.493,-50.308L-83.356,-45.908C-57.442,-23.696 -26.762,0.002 9.43,0.002C16.518,0.002 23.741,-0.914 30.902,-2.721C69.587,-13.396 105.468,-38.848 129.313,-72.546C153.696,-106.999 163.257,-145.712 156.232,-181.553C141.843,-251.625 74.676,-304.476 0,-304.476M9.43,2.872C-27.743,2.872 -58.921,-21.181 -85.226,-43.728L-90.359,-48.125C-116.775,-70.711 -144.091,-94.065 -150.733,-131.773C-160.128,-184.893 -152.318,-227.937 -128.15,-256.247C-106.212,-281.975 -65.103,-300.687 -18.185,-306.302C-12.172,-306.997 -6.057,-307.348 0,-307.348C76.011,-307.348 144.387,-253.511 159.048,-182.12C166.227,-145.487 156.498,-105.99 131.657,-70.888C107.435,-36.659 70.979,-10.802 31.636,0.054C24.215,1.927 16.753,2.872 9.43,2.872" style="fill:rgb(240,80,29);fill-rule:nonzero;"/>
        </g>
        <g transform="matrix(1.84854,0,0,1.84854,482.106,789.405)">
            <path d="M0,-304.476C-5.946,-304.476 -11.952,-304.132 -17.85,-303.452C-64.063,-297.92 -104.483,-279.577 -125.966,-254.384C-149.56,-226.747 -157.147,-184.521 -147.907,-132.272C-141.442,-95.577 -114.525,-72.564 -88.493,-50.308L-83.356,-45.908C-57.442,-23.696 -26.762,0.002 9.43,0.002C16.518,0.002 23.741,-0.914 30.902,-2.721C69.587,-13.396 105.468,-38.848 129.313,-72.546C153.696,-106.999 163.257,-145.712 156.232,-181.553C141.843,-251.625 74.676,-304.476 0,-304.476ZM9.43,2.872C-27.743,2.872 -58.921,-21.181 -85.226,-43.728L-90.359,-48.125C-116.775,-70.711 -144.091,-94.065 -150.733,-131.773C-160.128,-184.893 -152.318,-227.937 -128.15,-256.247C-106.212,-281.975 -65.103,-300.687 -18.185,-306.302C-12.172,-306.997 -6.057,-307.348 0,-307.348C76.011,-307.348 144.387,-253.511 159.048,-182.12C166.227,-145.487 156.498,-105.99 131.657,-70.888C107.435,-36.659 70.979,-10.802 31.636,0.054C24.215,1.927 16.753,2.872 9.43,2.872Z" style="fill:none;fill-rule:nonzero;stroke:rgb(240,80,29);stroke-width:2.16px;"/>
        </g>
        <g transform="matrix(1.84854,0,0,1.84854,475.229,853.105)">
            <path d="M0,-373.831C-6.306,-373.831 -12.66,-373.492 -18.89,-372.826C-61.755,-368.07 -119.032,-349.689 -151.215,-312.37C-189.094,-268.477 -187.392,-206.593 -179.293,-162.409C-171.126,-117.609 -137.974,-89.234 -105.913,-61.794C-103.634,-59.844 -101.355,-57.894 -99.087,-55.937C-67.491,-28.876 -30.193,-0.001 12.645,-0.001C21.694,-0.001 30.915,-1.281 40.047,-3.81C84.984,-16.163 128.818,-48.128 160.307,-91.508C191.076,-134.57 202.696,-179.603 193.906,-221.731C184.767,-262.352 159.929,-300.456 123.972,-329.004C87.561,-357.911 43.533,-373.831 0,-373.831M12.645,2.871C-31.173,2.871 -68.97,-26.361 -100.957,-53.76C-103.228,-55.716 -105.503,-57.664 -107.78,-59.612C-140.221,-87.38 -173.768,-116.092 -182.117,-161.893C-190.328,-206.692 -192.01,-269.492 -153.389,-314.247C-120.663,-352.194 -62.613,-370.863 -19.2,-375.682C-12.865,-376.358 -6.407,-376.702 0,-376.702C90.833,-376.702 177.238,-308.898 196.712,-222.341C205.675,-179.384 193.892,-133.57 162.637,-89.83C130.765,-45.924 86.363,-13.563 40.811,-1.043C31.432,1.555 21.953,2.871 12.645,2.871" style="fill:rgb(240,80,29);fill-rule:nonzero;"/>
        </g>
        <g transform="matrix(1.84854,0,0,1.84854,475.229,853.105)">
            <path d="M0,-373.831C-6.306,-373.831 -12.66,-373.492 -18.89,-372.826C-61.755,-368.07 -119.032,-349.689 -151.215,-312.37C-189.094,-268.477 -187.392,-206.593 -179.293,-162.409C-171.126,-117.609 -137.974,-89.234 -105.913,-61.794C-103.634,-59.844 -101.355,-57.894 -99.087,-55.937C-67.491,-28.876 -30.193,-0.001 12.645,-0.001C21.694,-0.001 30.915,-1.281 40.047,-3.81C84.984,-16.163 128.818,-48.128 160.307,-91.508C191.076,-134.57 202.696,-179.603 193.906,-221.731C184.767,-262.352 159.929,-300.456 123.972,-329.004C87.561,-357.911 43.533,-373.831 0,-373.831ZM12.645,2.871C-31.173,2.871 -68.97,-26.361 -100.957,-53.76C-103.228,-55.716 -105.503,-57.664 -107.78,-59.612C-140.221,-87.38 -173.768,-116.092 -182.117,-161.893C-190.328,-206.692 -192.01,-269.492 -153.389,-314.247C-120.663,-352.194 -62.613,-370.863 -19.2,-375.682C-12.865,-376.358 -6.407,-376.702 0,-376.702C90.833,-376.702 177.238,-308.898 196.712,-222.341C205.675,-179.384 193.892,-133.57 162.637,-89.83C130.765,-45.924 86.363,-13.563 40.811,-1.043C31.432,1.555 21.953,2.871 12.645,2.871Z" style="fill:none;fill-rule:nonzero;stroke:rgb(240,80,29);stroke-width:2.16px;"/>
        </g>
        <g transform="matrix(1.84854,0,0,1.84854,469.188,903.614)">
            <path d="M0,-428.886C-6.392,-428.886 -12.825,-428.564 -19.12,-427.927C-67.276,-422.871 -132.317,-401.893 -170.432,-358.169C-215.223,-306.794 -213.335,-236.399 -203.863,-186.391C-194.268,-135.413 -156.157,-102.76 -119.302,-71.184C-116.479,-68.764 -113.657,-66.347 -110.851,-63.925C-73.081,-31.582 -32.228,0 15.267,0C25.921,0 36.763,-1.625 47.493,-4.828C97.766,-19.731 147.86,-57.045 184.933,-107.209C221.255,-157.313 234.412,-206.443 224.031,-253.219C213.029,-298.293 183.193,-343.024 142.181,-375.91C99.579,-410.073 49.086,-428.886 0,-428.886M15.267,2.871C-33.206,2.871 -74.54,-29.051 -112.723,-61.747C-115.53,-64.171 -118.35,-66.586 -121.17,-69.002C-158.402,-100.904 -196.902,-133.89 -206.684,-185.859C-216.274,-236.489 -218.145,-307.812 -172.596,-360.057C-133.935,-404.407 -68.119,-425.67 -19.414,-430.782C-13.019,-431.43 -6.488,-431.757 0,-431.757C49.737,-431.757 100.869,-412.72 143.977,-378.151C185.473,-344.874 215.672,-299.576 226.827,-253.869C237.4,-206.228 224.084,-156.324 187.25,-105.513C149.807,-54.849 99.167,-17.152 48.312,-2.077C37.317,1.207 26.199,2.871 15.267,2.871" style="fill:rgb(240,80,29);fill-rule:nonzero;"/>
        </g>
        <g transform="matrix(1.84854,0,0,1.84854,469.188,903.614)">
            <path d="M0,-428.886C-6.392,-428.886 -12.825,-428.564 -19.12,-427.927C-67.276,-422.871 -132.317,-401.893 -170.432,-358.169C-215.223,-306.794 -213.335,-236.399 -203.863,-186.391C-194.268,-135.413 -156.157,-102.76 -119.302,-71.184C-116.479,-68.764 -113.657,-66.347 -110.851,-63.925C-73.081,-31.582 -32.228,0 15.267,0C25.921,0 36.763,-1.625 47.493,-4.828C97.766,-19.731 147.86,-57.045 184.933,-107.209C221.255,-157.313 234.412,-206.443 224.031,-253.219C213.029,-298.293 183.193,-343.024 142.181,-375.91C99.579,-410.073 49.086,-428.886 0,-428.886ZM15.267,2.871C-33.206,2.871 -74.54,-29.051 -112.723,-61.747C-115.53,-64.171 -118.35,-66.586 -121.17,-69.002C-158.402,-100.904 -196.902,-133.89 -206.684,-185.859C-216.274,-236.489 -218.145,-307.812 -172.596,-360.057C-133.935,-404.407 -68.119,-425.67 -19.414,-430.782C-13.019,-431.43 -6.488,-431.757 0,-431.757C49.737,-431.757 100.869,-412.72 143.977,-378.151C185.473,-344.874 215.672,-299.576 226.827,-253.869C237.4,-206.228 224.084,-156.324 187.25,-105.513C149.807,-54.849 99.167,-17.152 48.312,-2.077C37.317,1.207 26.199,2.871 15.267,2.871Z" style="fill:none;fill-rule:nonzero;stroke:rgb(240,80,29);stroke-width:2.16px;"/>
        </g>
        <g transform="matrix(1.84854,0,0,1.84854,470.295,944.724)">
            <path d="M0,-473.128C-9.456,-473.128 -18.986,-472.406 -28.324,-470.977C-88.909,-462.627 -154.223,-427.538 -190.87,-383.657C-230.462,-336.144 -241.92,-274.036 -224.923,-199.062C-211.218,-138.287 -160.719,-90.563 -118.256,-55.774C-70.784,-17.201 -31.855,0 7.964,0C23.787,0 40.047,-2.879 56.292,-8.557C110.775,-27.609 164.899,-70.465 204.786,-126.131C243.989,-182.066 256.434,-233.695 242.815,-283.954C229.723,-333.795 192.049,-384.504 139.449,-423.092C93.222,-456.291 46.299,-473.128 0,-473.128M7.964,2.872C-32.561,2.872 -72.048,-14.529 -120.07,-53.55C-137.938,-68.188 -164.166,-90.685 -185.613,-116.985C-207.697,-144.068 -221.472,-170.707 -227.723,-198.428C-244.928,-274.32 -233.27,-337.259 -193.075,-385.497C-156.001,-429.887 -89.959,-465.382 -28.737,-473.818C-19.276,-475.265 -9.601,-476 0,-476C46.913,-476 94.397,-458.981 141.137,-425.415C194.268,-386.436 232.335,-335.149 245.59,-284.695C259.44,-233.572 246.859,-181.16 207.127,-124.471C166.897,-68.322 112.269,-25.091 57.24,-5.845C40.688,-0.062 24.111,2.872 7.964,2.872" style="fill:rgb(240,80,29);fill-rule:nonzero;"/>
        </g>
        <g transform="matrix(1.84854,0,0,1.84854,470.295,944.724)">
            <path d="M0,-473.128C-9.456,-473.128 -18.986,-472.406 -28.324,-470.977C-88.909,-462.627 -154.223,-427.538 -190.87,-383.657C-230.462,-336.144 -241.92,-274.036 -224.923,-199.062C-211.218,-138.287 -160.719,-90.563 -118.256,-55.774C-70.784,-17.201 -31.855,0 7.964,0C23.787,0 40.047,-2.879 56.292,-8.557C110.775,-27.609 164.899,-70.465 204.786,-126.131C243.989,-182.066 256.434,-233.695 242.815,-283.954C229.723,-333.795 192.049,-384.504 139.449,-423.092C93.222,-456.291 46.299,-473.128 0,-473.128ZM7.964,2.872C-32.561,2.872 -72.048,-14.529 -120.07,-53.55C-137.938,-68.188 -164.166,-90.685 -185.613,-116.985C-207.697,-144.068 -221.472,-170.707 -227.723,-198.428C-244.928,-274.32 -233.27,-337.259 -193.075,-385.497C-156.001,-429.887 -89.959,-465.382 -28.737,-473.818C-19.276,-475.265 -9.601,-476 0,-476C46.913,-476 94.397,-458.981 141.137,-425.415C194.268,-386.436 232.335,-335.149 245.59,-284.695C259.44,-233.572 246.859,-181.16 207.127,-124.471C166.897,-68.322 112.269,-25.091 57.24,-5.845C40.688,-0.062 24.111,2.872 7.964,2.872Z" style="fill:none;fill-rule:nonzero;stroke:rgb(240,80,29);stroke-width:2.16px;"/>
        </g>
    </g>
</svg>
