<?xml version="1.0" encoding="UTF-8" standalone="no"?>
<!DOCTYPE svg PUBLIC "-//W3C//DTD SVG 1.1//EN" "http://www.w3.org/Graphics/SVG/1.1/DTD/svg11.dtd">
<svg width="100%" height="100%" viewBox="0 0 47 47" version="1.1" xmlns="http://www.w3.org/2000/svg" xmlns:xlink="http://www.w3.org/1999/xlink" xml:space="preserve" xmlns:serif="http://www.serif.com/" style="fill-rule:evenodd;clip-rule:evenodd;stroke-linejoin:round;stroke-miterlimit:2;">
    <g id="twitter" transform="matrix(1,0,0,1,0.19,0.19)">
        <path d="M23.31,0C10.523,0 0,10.523 0,23.31C0,36.097 10.523,46.62 23.31,46.62C36.097,46.62 46.62,36.097 46.62,23.31C46.618,10.523 36.097,0.002 23.31,0ZM33.953,18.175C33.963,18.404 33.968,18.635 33.968,18.866C33.968,18.901 33.968,18.936 33.968,18.97C33.968,27.264 27.143,34.089 18.849,34.089C18.815,34.089 18.78,34.089 18.746,34.089C15.839,34.093 12.992,33.259 10.546,31.689C10.97,31.739 11.396,31.763 11.822,31.763C14.231,31.767 16.572,30.96 18.467,29.473C16.183,29.431 14.166,27.932 13.467,25.757C14.269,25.912 15.096,25.88 15.884,25.665C13.397,25.162 11.592,22.957 11.592,20.42L11.592,20.352C12.334,20.766 13.165,20.995 14.015,21.021C11.677,19.459 10.947,16.309 12.359,13.878C15.075,17.219 19.087,19.253 23.387,19.468C23.294,19.07 23.247,18.662 23.247,18.253C23.247,15.316 25.664,12.9 28.6,12.9C30.076,12.9 31.489,13.511 32.5,14.586C33.699,14.349 34.849,13.91 35.9,13.286C35.5,14.525 34.664,15.577 33.547,16.245C34.607,16.119 35.643,15.835 36.619,15.402C35.902,16.477 34.999,17.416 33.953,18.175Z" style="fill:white;fill-rule:nonzero;"/>
    </g>
</svg>
